<?xml version="1.0" encoding="UTF-8"?>
<svg version="1.1" xmlns="http://www.w3.org/2000/svg" width="512" height="512">
<path d="M0 0 C1.01790619 0.00215515 2.03581238 0.0043103 3.08456421 0.00653076 C17.69363523 0.05620146 32.02575853 0.30709809 46.375 3.3125 C47.34985352 3.51117676 48.32470703 3.70985352 49.32910156 3.91455078 C97.7109774 14.03517194 141.69928269 35.9516877 177.375 70.3125 C178.3640332 71.26068604 178.3640332 71.26068604 179.37304688 72.22802734 C188.86130305 81.37247479 197.6012044 90.66984009 205.375 101.3125 C206.23306152 102.46355017 207.09113451 103.61459177 207.94921875 104.765625 C213.98736829 112.95680614 219.34595521 121.47054105 224.375 130.3125 C224.73948242 130.94430176 225.10396484 131.57610352 225.47949219 132.22705078 C247.08534998 169.97532572 256.85198095 212.74189997 256.6875 255.9375 C256.68534485 256.95540619 256.6831897 257.97331238 256.68096924 259.02206421 C256.63129854 273.63113523 256.38040191 287.96325853 253.375 302.3125 C253.07698486 303.77478027 253.07698486 303.77478027 252.77294922 305.26660156 C242.65232806 353.6484774 220.7358123 397.63678269 186.375 433.3125 C185.74287598 433.97185547 185.11075195 434.63121094 184.45947266 435.31054688 C175.31502521 444.79880305 166.01765991 453.5387044 155.375 461.3125 C154.22394983 462.17056152 153.07290823 463.02863451 151.921875 463.88671875 C143.73224019 469.92427396 135.22961724 475.30707302 126.375 480.3125 C125.66778809 480.7146875 124.96057617 481.116875 124.23193359 481.53125 C101.09654164 494.5566741 75.92537591 503.30551461 49.9375 508.625 C49.21860596 508.77235596 48.49971191 508.91971191 47.7590332 509.0715332 C33.08339502 511.86090125 18.55831162 512.66142619 3.64770508 512.62817383 C0.70811513 512.6250221 -2.2304558 512.64854926 -5.16992188 512.67382812 C-18.54306192 512.71848737 -31.43916711 511.51301542 -44.625 509.3125 C-46.33055054 509.03031616 -46.33055054 509.03031616 -48.07055664 508.74243164 C-91.33802759 500.97044532 -132.38793216 480.98345309 -165.625 452.3125 C-166.37007813 451.67828125 -167.11515625 451.0440625 -167.8828125 450.390625 C-181.38779833 438.57948485 -194.05918743 425.82889772 -204.625 411.3125 C-205.48149066 410.16255169 -206.33826433 409.01281411 -207.1953125 407.86328125 C-213.23534209 399.67315742 -218.61867614 391.16870382 -223.625 382.3125 C-224.0271875 381.60528809 -224.429375 380.89807617 -224.84375 380.16943359 C-237.8691741 357.03404164 -246.61801461 331.86287591 -251.9375 305.875 C-252.08485596 305.15610596 -252.23221191 304.43721191 -252.3840332 303.6965332 C-255.35789088 288.05024391 -255.99800362 272.57681954 -255.9375 256.6875 C-255.93534485 255.66959381 -255.9331897 254.65168762 -255.93096924 253.60293579 C-255.88129854 238.99386477 -255.63040191 224.66174147 -252.625 210.3125 C-252.42632324 209.33764648 -252.22764648 208.36279297 -252.02294922 207.35839844 C-241.90232806 158.9765226 -219.9858123 114.98821731 -185.625 79.3125 C-184.99287598 78.65314453 -184.36075195 77.99378906 -183.70947266 77.31445312 C-174.56502521 67.82619695 -165.26765991 59.0862956 -154.625 51.3125 C-153.47394983 50.45443848 -152.32290823 49.59636549 -151.171875 48.73828125 C-142.98224019 42.70072604 -134.47961724 37.31792698 -125.625 32.3125 C-124.91778809 31.9103125 -124.21057617 31.508125 -123.48193359 31.09375 C-100.34654164 18.0683259 -75.17537591 9.31948539 -49.1875 4 C-48.46860596 3.85264404 -47.74971191 3.70528809 -47.0090332 3.5534668 C-31.36274391 0.57960912 -15.88931954 -0.06050362 0 0 Z " fill="#6B2987" transform="translate(255.625,-0.3125)"/>
<path d="M0 0 C7.33036841 0.09227037 13.05587015 3.94752754 19.3125 7.4375 C20.46588867 8.06551514 21.61927734 8.69353027 22.80761719 9.34057617 C27.9992713 12.17734626 33.15000286 15.05928356 38.21484375 18.1171875 C46.50357707 23.07443916 52.48593673 26.1206308 62.375 25.9375 C65 26 65 26 67 28 C67.25878906 31.11694336 67.25878906 31.11694336 67.265625 35.08984375 C67.26753845 35.79017227 67.2694519 36.49050079 67.27142334 37.21205139 C67.27278493 38.69402424 67.2690903 40.17600902 67.26074219 41.65795898 C67.25005777 43.92524085 67.26062953 46.19172749 67.2734375 48.45898438 C67.27211559 49.89843925 67.26955253 51.33789363 67.265625 52.77734375 C67.26336914 54.08952881 67.26111328 55.40171387 67.25878906 56.75366211 C67 60 67 60 65 63 C61.9375 63.25 61.9375 63.25 59 63 C58 62 58 62 57.88647461 59.31616211 C57.89171143 58.14835205 57.89694824 56.98054199 57.90234375 55.77734375 C57.90556641 54.51728516 57.90878906 53.25722656 57.91210938 51.95898438 C57.92046597 50.61848891 57.92893093 49.27799412 57.9375 47.9375 C57.9425134 46.59310058 57.94707658 45.2486994 57.95117188 43.90429688 C57.96300512 40.60282059 57.97949029 37.30143197 58 34 C52.78900624 34.42538725 47.95592548 35.29099866 44 39 C43.27299396 42.15790119 43.04053949 44.32433104 43.09765625 47.484375 C43.08536484 48.29996887 43.07307343 49.11556274 43.06040955 49.95587158 C43.02867508 52.55482947 43.04495511 55.15095338 43.0625 57.75 C43.04939119 59.51434929 43.03315142 61.27867829 43.01367188 63.04296875 C42.97281373 67.36258401 42.97500311 71.68028406 43 76 C43.71695038 75.99111755 44.43390076 75.98223511 45.1725769 75.9730835 C51.96822749 75.89254225 58.76380565 75.83183628 65.55981255 75.79275131 C69.05277947 75.77198073 72.54534814 75.74385994 76.03808594 75.69824219 C80.06448939 75.64599054 84.09048227 75.62696802 88.1171875 75.609375 C89.35612762 75.58872986 90.59506775 75.56808472 91.87155151 75.54681396 C99.88387016 75.54476333 107.77174437 76.11698012 113.93795776 81.77972412 C117.54900952 85.75657257 120.26192396 89.61601383 120.22705078 95.12597656 C120.22689972 95.92650452 120.22674866 96.72703247 120.22659302 97.55181885 C120.21627045 98.40612488 120.20594788 99.26043091 120.1953125 100.140625 C120.19106766 101.46389801 120.19106766 101.46389801 120.18673706 102.81390381 C120.17555961 105.62607499 120.15045951 108.4379254 120.125 111.25 C120.11496705 113.15884956 120.10584175 115.06770412 120.09765625 116.9765625 C120.07562824 121.65116489 120.04111511 126.32552809 120 131 C120.57185028 130.99555878 121.14370056 130.99111755 121.73287964 130.98654175 C127.66971342 130.94239049 133.60650078 130.91216788 139.54345703 130.89013672 C141.76092421 130.88006175 143.97837805 130.86640141 146.19580078 130.84912109 C149.37796312 130.82493837 152.55995024 130.81353203 155.7421875 130.8046875 C156.73805878 130.79436493 157.73393005 130.78404236 158.75997925 130.77340698 C160.14118454 130.77318039 160.14118454 130.77318039 161.55029297 130.77294922 C162.3630368 130.768508 163.17578064 130.76406677 164.01315308 130.75949097 C166 131 166 131 168 133 C168.25396729 135.58081055 168.25396729 135.58081055 168.25878906 138.88671875 C168.26509338 140.12139893 168.27139771 141.3560791 168.27789307 142.62817383 C168.27431338 143.981284 168.27021145 145.33439287 168.265625 146.6875 C168.26697175 148.06990629 168.26891236 149.45231213 168.27142334 150.8347168 C168.27437418 153.73328151 168.27007836 156.63172303 168.26074219 159.53027344 C168.24934755 163.24960637 168.25590725 166.96865068 168.26788712 170.68797302 C168.27510688 173.54295027 168.27281728 176.39785885 168.26763153 179.25283813 C168.26629535 180.62440017 168.26794166 181.99596839 168.27259064 183.36752319 C168.27765748 185.2827747 168.26856831 187.19804801 168.25878906 189.11328125 C168.25719788 190.20423096 168.25560669 191.29518066 168.25396729 192.41918945 C168 195 168 195 166 197 C164.05111694 197.24050903 164.05111694 197.24050903 161.64208984 197.22705078 C160.74130707 197.22689972 159.84052429 197.22674866 158.91244507 197.22659302 C157.93844757 197.21627045 156.96445007 197.20594788 155.9609375 197.1953125 C154.96494537 197.1924826 153.96895325 197.18965271 152.94277954 197.18673706 C149.75339882 197.1755184 146.56429622 197.15041081 143.375 197.125 C141.21614988 197.11497238 139.05729537 197.10584615 136.8984375 197.09765625 C131.59876429 197.07727289 126.29969443 197.0381273 121 197 C121 209.54 121 222.08 121 235 C129.09271045 234.88143735 129.09271045 234.88143735 137.18481445 234.72973633 C138.69628052 234.71849731 138.69628052 234.71849731 140.23828125 234.70703125 C141.7857605 234.68346558 141.7857605 234.68346558 143.36450195 234.65942383 C146 235 146 235 147.83520508 236.25341797 C149.26996527 238.40480644 149.38669728 239.66353925 149.3984375 242.23828125 C149.40230469 243.05876953 149.40617187 243.87925781 149.41015625 244.72460938 C149.39275391 246.00561523 149.39275391 246.00561523 149.375 247.3125 C149.38660156 248.15490234 149.39820313 248.99730469 149.41015625 249.86523438 C149.38187642 255.89355047 148.49431262 260.23947304 144.31640625 264.86328125 C143.73761719 265.34152344 143.15882813 265.81976563 142.5625 266.3125 C141.69818359 267.04919922 141.69818359 267.04919922 140.81640625 267.80078125 C137.54689604 269.95936111 134.26918207 270.12587571 130.42558002 270.1398077 C129.50703308 270.14549894 128.58848614 270.15119018 127.64210445 270.15705389 C126.13381101 270.1588237 126.13381101 270.1588237 124.595047 270.16062927 C123.52400512 270.16571709 122.45296324 270.17080491 121.34946555 270.17604691 C117.74835919 270.19178563 114.14727292 270.20030021 110.54614258 270.20874023 C107.96905387 270.21827744 105.39196646 270.22816855 102.81488037 270.23838806 C95.0730325 270.26764508 87.33117294 270.28685446 79.58928946 270.30378041 C77.40206727 270.30857722 75.21484557 270.31356031 73.02762389 270.31858563 C59.44007862 270.34955577 45.85252905 270.3762357 32.26495838 270.39300442 C29.11894028 270.39695379 25.97292225 270.4009568 22.8269043 270.4050293 C21.65404097 270.40654184 21.65404097 270.40654184 20.45748343 270.40808494 C7.79256228 270.42508997 -4.87216343 270.46619907 -17.53698917 270.51705229 C-30.54473141 270.56885214 -43.55237317 270.59794964 -56.56021768 270.6052013 C-63.86167355 270.60986026 -71.1628092 270.6245768 -78.46416283 270.6649456 C-85.3334717 270.70288011 -92.20222605 270.71023094 -99.07162476 270.69693947 C-101.59152219 270.69699346 -104.11144367 270.70730857 -106.63125038 270.7286911 C-110.07486983 270.75634869 -113.5164928 270.74687219 -116.96012878 270.72825623 C-117.95450413 270.74505115 -118.94887948 270.76184608 -119.97338742 270.77914995 C-127.02230019 270.68409115 -131.72981364 268.74175744 -137 264 C-140.53791548 258.4230569 -140.39806567 253.01958595 -140.25 246.625 C-140.24484375 245.71105469 -140.2396875 244.79710937 -140.234375 243.85546875 C-140.15472274 237.15472274 -140.15472274 237.15472274 -139 236 C-137.00035018 235.91241997 -134.9976389 235.89303424 -132.99609375 235.90234375 C-131.78115234 235.90556641 -130.56621094 235.90878906 -129.31445312 235.91210938 C-128.03505859 235.92048828 -126.75566406 235.92886719 -125.4375 235.9375 C-124.15423828 235.94201172 -122.87097656 235.94652344 -121.54882812 235.95117188 C-118.36583978 235.96300455 -115.18294238 235.97948932 -112 236 C-112.00460896 235.26008316 -112.00921793 234.52016632 -112.01396656 233.75782776 C-112.12448212 215.73779827 -112.20717419 197.71783659 -112.25906086 179.69754028 C-112.28482111 170.9829693 -112.31992975 162.26862481 -112.37719727 153.55419922 C-112.42709922 145.95696006 -112.45930686 138.35988496 -112.47044247 130.76248646 C-112.47694982 126.74120074 -112.49219777 122.72038429 -112.52865028 118.69924927 C-112.5627176 114.91034921 -112.57303166 111.12210943 -112.56553841 107.33307076 C-112.5669082 105.94637012 -112.57677741 104.55964623 -112.59602737 103.17307854 C-112.70151825 95.17905378 -112.45434619 89.16541441 -107 83 C-99.46157375 75.65995339 -91.85098658 75.5790944 -81.84765625 75.70703125 C-80.59238632 75.71127609 -79.33711639 75.71552094 -78.04380798 75.71989441 C-74.72770663 75.73379372 -71.41223948 75.76068498 -68.09631348 75.79400635 C-64.7042393 75.82485079 -61.31209732 75.83859535 -57.91992188 75.85351562 C-51.27959402 75.88396653 -44.6403672 75.94270057 -38 76 C-38 63.46 -38 50.92 -38 38 C-39.98 37.34 -41.96 36.68 -44 36 C-46.875 33.875 -46.875 33.875 -49 32 C-48.953125 29.76953125 -48.953125 29.76953125 -48 27 C-45.58512474 25.30771047 -43.36200769 24.00821656 -40.75 22.6875 C-39.13099389 21.8290985 -37.51254642 20.96964288 -35.89453125 20.109375 C-34.97881348 19.62919922 -34.0630957 19.14902344 -33.11962891 18.65429688 C-27.51669912 15.68313924 -21.9736741 12.6027127 -16.42370605 9.53408813 C-14.44731402 8.44291834 -12.46859421 7.35608183 -10.48925781 6.27026367 C-9.26234324 5.59558864 -8.03545406 4.92086744 -6.80859375 4.24609375 C-5.71345459 3.64466553 -4.61831543 3.0432373 -3.48999023 2.42358398 C-1.13340114 1.22103564 -1.13340114 1.22103564 0 0 Z " fill="#FAF8FB" transform="translate(242,121)"/>
<path d="M0 0 C1.14088074 0.00015106 2.28176147 0.00030212 3.45721436 0.00045776 C5.29645477 0.01594162 5.29645477 0.01594162 7.17285156 0.03173828 C8.43236633 0.03456818 9.6918811 0.03739807 10.98956299 0.04031372 C14.33021558 0.04960957 17.67059325 0.06756495 21.01116943 0.08972168 C24.42311228 0.1102187 27.83508358 0.11932366 31.24707031 0.12939453 C37.93594825 0.15145171 44.62469653 0.18492711 51.31347656 0.22705078 C51.3352597 0.83276413 51.35704285 1.43847748 51.37948608 2.06254578 C51.48309011 4.82994401 51.59740939 7.59680176 51.71191406 10.36376953 C51.74599365 11.3166687 51.78007324 12.26956787 51.81518555 13.25134277 C52.2448868 23.25817344 54.4992594 30.16860696 61.45410156 37.53955078 C69.47198833 44.81628835 78.53337507 45.62349224 88.92431641 45.65258789 C90.91242219 45.66439603 92.90018657 45.71403011 94.88769531 45.76416016 C105.11181571 45.82044911 114.46241698 44.12667238 122.25097656 37.03955078 C129.05249506 29.09090559 131.06694804 21.41236549 131.12597656 11.10205078 C131.15111328 10.05017578 131.17625 8.99830078 131.20214844 7.91455078 C131.26039565 5.35167332 131.29713062 2.79047894 131.31347656 0.22705078 C138.90237019 0.13418099 146.49120453 0.06320003 154.0805378 0.01980209 C157.6050035 -0.00103191 161.12907909 -0.02927124 164.65332031 -0.07470703 C168.70934699 -0.12666878 172.76496685 -0.14592889 176.82128906 -0.16357422 C178.08087433 -0.18421936 179.34045959 -0.2048645 180.63821411 -0.22613525 C191.75099853 -0.22897868 191.75099853 -0.22897868 196.31347656 4.22705078 C200.46318683 9.03102571 200.86937847 12.6318393 200.70410156 18.68798828 C200.69844177 19.47855621 200.69278198 20.26912415 200.68695068 21.08364868 C200.66469144 23.59041805 200.6145181 26.09571891 200.56347656 28.60205078 C200.5433979 30.30906128 200.52514952 32.01609435 200.50878906 33.72314453 C200.4648614 37.89167274 200.39590952 42.05911342 200.31347656 46.22705078 C199.04640869 46.25210693 197.77934082 46.27716309 196.47387695 46.30297852 C191.79049877 46.39687074 187.10727526 46.49713513 182.42407227 46.59936523 C180.39383552 46.64278319 178.36356064 46.68445304 176.33325195 46.72436523 C173.42159505 46.78190225 170.51013143 46.84564356 167.59863281 46.91064453 C166.22832664 46.93571327 166.22832664 46.93571327 164.83033752 46.96128845 C160.7455834 46.65011928 160.7455834 46.65011928 157.31347656 48.22705078 C157.21946986 50.19074231 157.19604275 52.15784277 157.19995117 54.1237793 C157.2000267 55.38501114 157.20010223 56.64624298 157.20018005 57.94569397 C157.20528746 59.33244872 157.21050347 60.71920307 157.21582031 62.10595703 C157.21768455 63.51700287 157.21910843 64.92804935 157.22010803 66.33909607 C157.22393277 70.05945613 157.23376267 73.77977738 157.24481201 77.50012207 C157.25502708 81.29385859 157.25960586 85.08760136 157.26464844 88.88134766 C157.27538498 96.32993309 157.29246086 103.77848651 157.31347656 111.22705078 C157.97347656 111.22705078 158.63347656 111.22705078 159.31347656 111.22705078 C159.46993917 114.51276551 159.40112323 116.97506662 158.31347656 120.10205078 C157.06071838 124.0169201 157.17224351 127.13129236 157.31347656 131.22705078 C163.68389051 129.9595524 167.21982802 127.20625086 171.93847656 122.85205078 C173.22168092 121.6976822 174.50552151 120.54402043 175.79003906 119.39111328 C176.62656006 118.62468506 176.62656006 118.62468506 177.47998047 117.84277344 C186.43362194 109.95260044 184.75088006 112.22705078 200.31347656 112.22705078 C200.31347656 124.76705078 200.31347656 137.30705078 200.31347656 150.22705078 C129.36347656 150.22705078 58.41347656 150.22705078 -14.68652344 150.22705078 C-14.78964844 126.92080078 -14.89277344 103.61455078 -14.99902344 79.60205078 C-15.04454346 72.24327637 -15.09006348 64.88450195 -15.13696289 57.30273438 C-15.1595459 48.31616211 -15.1595459 48.31616211 -15.16374207 44.10903931 C-15.16840019 41.1707776 -15.18713546 38.23296764 -15.21440125 35.29483032 C-15.24873793 31.54497325 -15.25897226 27.79577154 -15.25188482 24.04577184 C-15.25406463 22.02294211 -15.2808626 20.00018459 -15.30866718 17.97754478 C-15.25217911 8.13098614 -15.25217911 8.13098614 -12.40104675 4.49478149 C-8.06499377 0.87241418 -5.66331892 -0.02505893 0 0 Z " fill="#6C2E8F" transform="translate(153.6865234375,205.77294921875)"/>
<path d="M0 0 C1.88758262 1.16352099 3.61541395 2.42988755 5.3515625 3.80859375 C10.68457421 7.66302165 18.7322708 6.48016312 25 6 C29.34794511 4.77186557 32.79746645 3.20253355 36 0 C49.29168506 0.28894968 61.99532233 9.22186052 70.91796875 18.42578125 C76.61142464 25.4651573 80.10945607 33.43282186 80.14526367 42.47119141 C80.15164352 43.56557526 80.15802338 44.65995911 80.16459656 45.7875061 C80.16570938 46.96364471 80.1668222 48.13978333 80.16796875 49.3515625 C80.17296135 51.1671315 80.17296135 51.1671315 80.17805481 53.01937866 C80.18311577 55.5763918 80.18546339 58.13341154 80.18530273 60.69042969 C80.18749533 64.61664569 80.20567683 68.54258349 80.22460938 72.46875 C80.22754215 74.95051987 80.22952772 77.43229108 80.23046875 79.9140625 C80.23765427 81.09424957 80.24483978 82.27443665 80.25224304 83.49038696 C80.24916641 84.57846649 80.24608978 85.66654602 80.24291992 86.78759766 C80.24434494 87.74816071 80.24576996 88.70872375 80.24723816 89.69839478 C80 92 80 92 78 94 C75.88540649 94.25168228 75.88540649 94.25168228 73.21728516 94.25396729 C72.20772766 94.25960693 71.19817017 94.26524658 70.15802002 94.27105713 C68.49038605 94.26498444 68.49038605 94.26498444 66.7890625 94.25878906 C65.62155457 94.2622937 64.45404663 94.26579834 63.25115967 94.26940918 C60.04457892 94.27671754 56.83816253 94.27498455 53.63158417 94.26865101 C50.27994138 94.2635966 46.92830298 94.2682809 43.57666016 94.27142334 C37.94757102 94.27506462 32.31853431 94.27025966 26.68945312 94.26074219 C20.17629354 94.24985729 13.66325916 94.25338276 7.15010262 94.264395 C1.56365447 94.27346328 -4.02275593 94.27475541 -9.60920906 94.26951766 C-12.94821051 94.26639542 -16.28716532 94.26599555 -19.62615967 94.27259064 C-23.34721449 94.27764634 -27.06802589 94.26995891 -30.7890625 94.25878906 C-31.90081848 94.26283752 -33.01257446 94.26688599 -34.15802002 94.27105713 C-35.16757751 94.26541748 -36.17713501 94.25977783 -37.21728516 94.25396729 C-38.0977652 94.25321323 -38.97824524 94.25245918 -39.88540649 94.25168228 C-42 94 -42 94 -44 92 C-44.26069641 89.7767334 -44.26069641 89.7767334 -44.2746582 86.97460938 C-44.28419022 85.92591675 -44.29372223 84.87722412 -44.30354309 83.79675293 C-44.30263168 82.65726196 -44.30172028 81.517771 -44.30078125 80.34375 C-44.30506638 79.17171021 -44.3093515 77.99967041 -44.31376648 76.79211426 C-44.3195213 74.30379889 -44.32000162 71.8154667 -44.31567383 69.32714844 C-44.31253593 65.54332097 -44.33588257 61.76029193 -44.36132812 57.9765625 C-44.36360338 55.55729265 -44.36430356 53.1380207 -44.36328125 50.71875 C-44.372491 49.59545288 -44.38170074 48.47215576 -44.39118958 47.31481934 C-44.31240858 33.73213427 -40.12870747 24.40862084 -31.0625 14.4375 C-24.10964863 7.69749102 -10.00814045 -1.70870691 0 0 Z " fill="#642D8F" transform="translate(227,256)"/>
<path d="M0 0 C27.06 0 54.12 0 82 0 C82 15.84 82 31.68 82 48 C77.36324219 47.95617187 72.72648437 47.91234375 67.94921875 47.8671875 C64.99131576 47.86168883 62.03399393 47.85915987 59.07617188 47.8671875 C54.39277775 47.8796199 49.71113807 47.88174545 45.02807617 47.81835938 C41.24706026 47.76787567 37.46884751 47.767068 33.68766212 47.79904556 C32.25369989 47.80276364 30.81957548 47.78932447 29.38596153 47.75750351 C22.32980915 47.61164013 16.60185355 47.8616401 11.11259937 52.66086006 C9.71685189 54.01519264 8.38452415 55.43397394 7.05622864 56.85452271 C6.37767319 57.56253021 5.69911774 58.27053772 5 59 C4.34 59 3.68 59 3 59 C3.05220703 58.06027344 3.05220703 58.06027344 3.10546875 57.1015625 C3.13253906 56.28429687 3.15960938 55.46703125 3.1875 54.625 C3.22230469 53.81289063 3.25710938 53.00078125 3.29296875 52.1640625 C3.19628906 51.44992187 3.09960938 50.73578125 3 50 C2.01 49.34 1.02 48.68 0 48 C-0.36076355 45.93722534 -0.36076355 45.93722534 -0.34057617 43.36669922 C-0.34021362 42.39240967 -0.33985107 41.41812012 -0.33947754 40.41430664 C-0.32412964 39.38813232 -0.30878174 38.36195801 -0.29296875 37.3046875 C-0.28994751 36.36310791 -0.28692627 35.42152832 -0.28381348 34.45141602 C-0.26808818 30.9258329 -0.22620434 27.40040573 -0.1875 23.875 C-0.125625 15.99625 -0.06375 8.1175 0 0 Z " fill="#683091" transform="translate(319,261)"/>
<path d="M0 0 C34.32 0 68.64 0 104 0 C104.99 4.455 104.99 4.455 106 9 C106.66808526 12.08373273 106.66808526 12.08373273 108.92993164 13.16870117 C113.33764647 14.36220169 117.57329052 14.30519217 122.12109375 14.30078125 C123.09861099 14.30506638 124.07612823 14.3093515 125.08326721 14.31376648 C127.14673082 14.31949904 129.21021464 14.32001797 131.27368164 14.31567383 C134.42304094 14.3125145 137.5714599 14.33598458 140.72070312 14.36132812 C142.72916549 14.36360135 144.73763036 14.3643045 146.74609375 14.36328125 C148.15259438 14.37709587 148.15259438 14.37709587 149.58750916 14.39118958 C154.8067117 14.35442856 158.50075123 13.95136857 163 11 C165.9932234 7.1810598 166.15412341 5.07525956 167 0 C201.32 0 235.64 0 271 0 C271 11.44444444 271 11.44444444 268 15 C264.86445657 17.09036229 264.16578237 17.25052786 260.59992409 17.25447559 C259.24229043 17.26322388 259.24229043 17.26322388 257.85722983 17.27214891 C256.86162334 17.26836958 255.86601686 17.26459026 254.84024048 17.26069641 C253.25522722 17.26643473 253.25522722 17.26643473 251.63819349 17.27228898 C248.07987208 17.28264862 244.52171113 17.27862117 240.96337891 17.2746582 C238.41935577 17.27900305 235.87533395 17.28418543 233.33131409 17.29014587 C227.12767183 17.30217603 220.92408921 17.30468422 214.72043754 17.30234561 C209.67859382 17.30056421 204.63676326 17.30230827 199.59492111 17.30657005 C198.87795264 17.30716524 198.16098416 17.30776043 197.42228936 17.30837366 C195.96585962 17.30958538 194.50942988 17.31079952 193.05300014 17.31201603 C179.38650481 17.32289893 165.72003414 17.32072566 152.05353741 17.31463119 C139.54757943 17.30946248 127.04169935 17.3207149 114.53575678 17.33972941 C101.69981942 17.35909626 88.86391893 17.36736576 76.02796686 17.36360615 C68.81951801 17.36169221 61.61113546 17.36420034 54.40269852 17.37832069 C47.62461863 17.39146341 40.84672014 17.38899012 34.06863213 17.37590981 C31.57771566 17.37353631 29.08678833 17.37630619 26.59588432 17.38453293 C23.20164845 17.39493662 19.80794317 17.38695067 16.41372681 17.3742218 C15.42258176 17.38159609 14.43143672 17.38897037 13.41025698 17.39656812 C8.49072109 17.35762198 4.94469783 17.30494503 1 14 C-1.09231398 9.81537205 0 4.67855628 0 0 Z " fill="#663D90" transform="translate(111,366)"/>
<path d="M0 0 C1.88758262 1.16352099 3.61541395 2.42988755 5.3515625 3.80859375 C10.68457421 7.66302165 18.7322708 6.48016312 25 6 C29.34794511 4.77186557 32.79746645 3.20253355 36 0 C49.29168506 0.28894968 61.99532233 9.22186052 70.91796875 18.42578125 C76.61142464 25.4651573 80.10945607 33.43282186 80.14526367 42.47119141 C80.15164352 43.56557526 80.15802338 44.65995911 80.16459656 45.7875061 C80.16570938 46.96364471 80.1668222 48.13978333 80.16796875 49.3515625 C80.17296135 51.1671315 80.17296135 51.1671315 80.17805481 53.01937866 C80.18311577 55.5763918 80.18546339 58.13341154 80.18530273 60.69042969 C80.18749533 64.61664569 80.20567683 68.54258349 80.22460938 72.46875 C80.22754215 74.95051987 80.22952772 77.43229108 80.23046875 79.9140625 C80.23765427 81.09424957 80.24483978 82.27443665 80.25224304 83.49038696 C80.24916641 84.57846649 80.24608978 85.66654602 80.24291992 86.78759766 C80.24434494 87.74816071 80.24576996 88.70872375 80.24723816 89.69839478 C80 92 80 92 78 94 C75.88540649 94.25168228 75.88540649 94.25168228 73.21728516 94.25396729 C72.20772766 94.25960693 71.19817017 94.26524658 70.15802002 94.27105713 C68.49038605 94.26498444 68.49038605 94.26498444 66.7890625 94.25878906 C65.62155457 94.2622937 64.45404663 94.26579834 63.25115967 94.26940918 C60.04457892 94.27671754 56.83816253 94.27498455 53.63158417 94.26865101 C50.27994138 94.2635966 46.92830298 94.2682809 43.57666016 94.27142334 C37.94757102 94.27506462 32.31853431 94.27025966 26.68945312 94.26074219 C20.17629354 94.24985729 13.66325916 94.25338276 7.15010262 94.264395 C1.56365447 94.27346328 -4.02275593 94.27475541 -9.60920906 94.26951766 C-12.94821051 94.26639542 -16.28716532 94.26599555 -19.62615967 94.27259064 C-23.34721449 94.27764634 -27.06802589 94.26995891 -30.7890625 94.25878906 C-31.90081848 94.26283752 -33.01257446 94.26688599 -34.15802002 94.27105713 C-35.16757751 94.26541748 -36.17713501 94.25977783 -37.21728516 94.25396729 C-38.0977652 94.25321323 -38.97824524 94.25245918 -39.88540649 94.25168228 C-42 94 -42 94 -44 92 C-44.26069641 89.7767334 -44.26069641 89.7767334 -44.2746582 86.97460938 C-44.28419022 85.92591675 -44.29372223 84.87722412 -44.30354309 83.79675293 C-44.30263168 82.65726196 -44.30172028 81.517771 -44.30078125 80.34375 C-44.30506638 79.17171021 -44.3093515 77.99967041 -44.31376648 76.79211426 C-44.3195213 74.30379889 -44.32000162 71.8154667 -44.31567383 69.32714844 C-44.31253593 65.54332097 -44.33588257 61.76029193 -44.36132812 57.9765625 C-44.36360338 55.55729265 -44.36430356 53.1380207 -44.36328125 50.71875 C-44.372491 49.59545288 -44.38170074 48.47215576 -44.39118958 47.31481934 C-44.31240858 33.73213427 -40.12870747 24.40862084 -31.0625 14.4375 C-24.10964863 7.69749102 -10.00814045 -1.70870691 0 0 Z M-27.16015625 22.8828125 C-42.11568106 40.09277948 -35 62.77335617 -35 85 C-0.02 85 34.96 85 71 85 C74.52185588 48.0737995 74.52185588 48.0737995 62.125 21.25 C58.50285115 17.96157722 54.24938027 15.75027168 49.9375 13.5 C49.25252441 13.13680664 48.56754883 12.77361328 47.86181641 12.39941406 C43.52846012 10.2709314 40.80095603 9.51594379 36 11 C34.70611562 11.64306829 33.43336186 12.33072009 32.1875 13.0625 C24.14076403 16.80580332 12.96970495 16.29256961 4.625 13.625 C1 12 1 12 -2 10 C-11.04425325 10 -20.76754924 16.7640043 -27.16015625 22.8828125 Z " fill="#F8F6FA" transform="translate(227,256)"/>
<path d="M0 0 C0.91136719 0.2784375 1.82273437 0.556875 2.76171875 0.84375 C7.35861508 2.51797284 7.35861508 2.51797284 9 4 C11.40954187 14.20434398 12.16262982 29.47425232 7.3984375 39.01953125 C3.31311274 44.80517274 -1.2226526 48.05883633 -8 50 C-12.61845245 50.42943885 -17.23843508 50.3702151 -21.875 50.375 C-23.11636719 50.39949219 -24.35773438 50.42398438 -25.63671875 50.44921875 C-34.07993515 50.47619388 -39.82851743 49.6554978 -46.2421875 44.03515625 C-46.78101563 43.38417969 -47.31984375 42.73320312 -47.875 42.0625 C-48.42929688 41.41410156 -48.98359375 40.76570313 -49.5546875 40.09765625 C-52.65139306 35.60324845 -53.24471944 31.7967792 -53.1953125 26.38671875 C-53.18886719 25.13955078 -53.18242187 23.89238281 -53.17578125 22.60742188 C-53.15902344 21.31384766 -53.14226562 20.02027344 -53.125 18.6875 C-53.11597656 17.37458984 -53.10695312 16.06167969 -53.09765625 14.70898438 C-53.07411797 11.47247087 -53.0412352 8.23632851 -53 5 C-35.8930229 -3.83623119 -18.57272246 -5.89448921 0 0 Z " fill="#792F91" transform="translate(267,193)"/>
<path d="M0 0 C34.32 0 68.64 0 104 0 C104.99 4.455 104.99 4.455 106 9 C106.66739179 12.08121439 106.66739179 12.08121439 108.91674805 13.16162109 C113.38424148 14.37639443 117.72032871 14.3584861 122.33203125 14.4140625 C123.32377853 14.43342865 124.31552582 14.4527948 125.33732605 14.4727478 C128.4956307 14.53238453 131.6539721 14.57886555 134.8125 14.625 C136.95769792 14.6631944 139.10288075 14.70224698 141.24804688 14.7421875 C146.49856362 14.83807292 151.74917176 14.92316678 157 15 C157 15.33 157 15.66 157 16 C137.12040318 16.09339491 117.2408508 16.16395542 97.36108017 16.20724869 C88.13078228 16.22788381 78.90062062 16.25602249 69.67041016 16.30175781 C61.62640457 16.34159658 53.58249762 16.3674259 45.53839612 16.37635398 C41.27810536 16.38157378 37.01809683 16.39386169 32.75789642 16.42292023 C28.74910954 16.45004271 24.7407215 16.45845152 20.73185158 16.45243073 C19.25963232 16.45353239 17.78739992 16.46150544 16.31525993 16.4768219 C14.30676771 16.49669603 12.29806213 16.48956069 10.28948975 16.48101807 C8.60260859 16.48654882 8.60260859 16.48654882 6.88164902 16.49219131 C4 16 4 16 0 12 C0 8.04 0 4.08 0 0 Z " fill="#572A86" transform="translate(111,366)"/>
<path d="M0 0 C2.85253906 1.27514648 2.85253906 1.27514648 5.765625 2.87109375 C6.82007813 3.44537109 7.87453125 4.01964844 8.9609375 4.61132812 C10.04632813 5.21396484 11.13171875 5.81660156 12.25 6.4375 C13.35085938 7.03626953 14.45171875 7.63503906 15.5859375 8.25195312 C23.70603741 12.70603741 23.70603741 12.70603741 26 15 C22.93601549 15.13530844 19.87802874 15.2342407 16.8125 15.3125 C15.94818359 15.35439453 15.08386719 15.39628906 14.19335938 15.43945312 C7.68608407 15.56411357 7.68608407 15.56411357 4.01171875 12.54296875 C3.34785156 11.70378906 2.68398437 10.86460937 2 10 C-1.49474739 8.2526263 -5.18678856 8.44774179 -9 9 C-12.26977606 10.68633188 -12.26977606 10.68633188 -14 14 C-14.9961698 19.02201303 -14.7743543 22.7094095 -12.125 27.125 C-8.36889395 29.37866363 -5.80409853 29.59681096 -1.5 29.6640625 C1.25626778 29.17882154 1.25626778 29.17882154 3.23046875 26.48046875 C7.16427858 22.95723992 10.22822669 23.42666514 15.3125 23.6875 C16.56643555 23.72133789 16.56643555 23.72133789 17.84570312 23.75585938 C19.89791149 23.8144939 21.94919202 23.90416785 24 24 C19.97619516 28.48183996 14.39225662 30.93529826 9.1875 33.8125 C8.10662109 34.43576172 7.02574219 35.05902344 5.91210938 35.70117188 C4.86216797 36.28060547 3.81222656 36.86003906 2.73046875 37.45703125 C1.77551514 37.99303955 0.82056152 38.52904785 -0.16333008 39.08129883 C-4.80690562 40.58519544 -7.75391645 38.61054081 -11.95678711 36.55126953 C-12.9700708 36.00067871 -13.98335449 35.45008789 -15.02734375 34.8828125 C-16.71053711 33.97208984 -16.71053711 33.97208984 -18.42773438 33.04296875 C-19.58595703 32.41003906 -20.74417969 31.77710938 -21.9375 31.125 C-23.09185547 30.49980469 -24.24621094 29.87460938 -25.43554688 29.23046875 C-30.9929272 26.21424283 -36.52863626 23.16972747 -42 20 C-39.37185235 16.96138495 -36.28678757 15.39248753 -32.7578125 13.53125 C-32.15242645 13.20966919 -31.54704041 12.88808838 -30.92330933 12.5567627 C-28.99322191 11.53267652 -27.05932218 10.51606114 -25.125 9.5 C-23.1986011 8.4825256 -21.27303767 7.46349977 -19.34811401 6.4432373 C-17.59700883 5.51598177 -15.84372691 4.5928404 -14.09033203 3.66992188 C-11.02525081 2.0914446 -11.02525081 2.0914446 -8.46826172 0.22070312 C-5.15990486 -1.41547732 -3.51506954 -0.99984075 0 0 Z " fill="#883193" transform="translate(249,132)"/>
<path d="M0 0 C2.8037422 1.19850489 4.83414599 2.83414599 7 5 C7.1875 7.4375 7.1875 7.4375 7 10 C6.34 10.66 5.68 11.32 5 12 C1.55834679 11.64700993 -0.06872538 10.95418308 -3 9 C-6.82748905 9.18232592 -6.82748905 9.18232592 -10 11 C-10.16053815 12.87321948 -10.16053815 12.87321948 -10.125 15 C-10.12757813 15.721875 -10.13015625 16.44375 -10.1328125 17.1875 C-10.19695276 19.02089415 -10.19695276 19.02089415 -9 20 C-3.97412851 20.37931106 -1.91021425 19.99783093 2 17 C6.41025641 17.41025641 6.41025641 17.41025641 8 19 C8.4375 21.25 8.4375 21.25 8 24 C2.535348 29.22705844 -0.77597089 30.47223645 -8.1640625 30.4140625 C-12.71704368 29.74930216 -15.18476538 27.51482885 -18 24 C-20.79215875 19.62966457 -20.91444364 14.0177164 -20 9 C-15.25275833 0.82336293 -9.08814916 -1.1019867 0 0 Z " fill="#FAF9FB" transform="translate(224,281)"/>
<path d="M0 0 C1.44989319 0.00213753 1.44989319 0.00213753 2.92907715 0.00431824 C4.02361206 0.00124161 5.11814697 -0.00183502 6.24584961 -0.00500488 C8.02554138 0.00577339 8.02554138 0.00577339 9.84118652 0.01676941 C11.66100037 0.01745674 11.66100037 0.01745674 13.51757812 0.01815796 C16.08655778 0.02118342 18.65553555 0.02907842 21.2244873 0.04142761 C25.16840069 0.05966171 29.11207918 0.0619375 33.05603027 0.06169128 C35.54691773 0.06660714 38.03780359 0.07243575 40.52868652 0.07926941 C41.71514771 0.08038223 42.90160889 0.08149506 44.12402344 0.0826416 C45.21855835 0.08902145 46.31309326 0.09540131 47.4407959 0.10197449 C48.89068909 0.10769218 48.89068909 0.10769218 50.36987305 0.11352539 C52.68493652 0.24723816 52.68493652 0.24723816 54.68493652 1.24723816 C54.80993652 4.12223816 54.80993652 4.12223816 54.68493652 7.24723816 C52.09306817 9.83910652 51.04667024 9.50009132 47.4407959 9.50602722 C45.79899353 9.5154837 45.79899353 9.5154837 44.12402344 9.52513123 C42.93756226 9.52108276 41.75110107 9.5170343 40.52868652 9.51286316 C39.31547729 9.51477661 38.10226807 9.51669006 36.85229492 9.5186615 C34.28332309 9.5200245 31.7143444 9.51632008 29.14538574 9.50798035 C25.20138149 9.49728276 21.25783277 9.5078721 17.31384277 9.52067566 C14.82295635 9.51935409 12.3320702 9.51679174 9.84118652 9.51286316 C8.06149475 9.51893585 8.06149475 9.51893585 6.24584961 9.52513123 C5.1513147 9.5188269 4.05677979 9.51252258 2.92907715 9.50602722 C1.96248169 9.50443604 0.99588623 9.50284485 0 9.50120544 C-2.31506348 9.24723816 -2.31506348 9.24723816 -4.31506348 7.24723816 C-4.56506348 4.74723816 -4.56506348 4.74723816 -4.31506348 2.24723816 C-2.31506348 0.24723816 -2.31506348 0.24723816 0 0 Z " fill="#FCFBFC" transform="translate(334.3150634765625,279.7527618408203)"/>
<path d="M0 0 C1.44989319 0.00213753 1.44989319 0.00213753 2.92907715 0.00431824 C4.02361206 0.00124161 5.11814697 -0.00183502 6.24584961 -0.00500488 C8.02554138 0.00577339 8.02554138 0.00577339 9.84118652 0.01676941 C11.66100037 0.01745674 11.66100037 0.01745674 13.51757812 0.01815796 C16.08655778 0.02118342 18.65553555 0.02907842 21.2244873 0.04142761 C25.16840069 0.05966171 29.11207918 0.0619375 33.05603027 0.06169128 C35.54691773 0.06660714 38.03780359 0.07243575 40.52868652 0.07926941 C41.71514771 0.08038223 42.90160889 0.08149506 44.12402344 0.0826416 C45.21855835 0.08902145 46.31309326 0.09540131 47.4407959 0.10197449 C48.89068909 0.10769218 48.89068909 0.10769218 50.36987305 0.11352539 C52.68493652 0.24723816 52.68493652 0.24723816 54.68493652 1.24723816 C54.80993652 4.12223816 54.80993652 4.12223816 54.68493652 7.24723816 C52.09306817 9.83910652 51.04667024 9.50009132 47.4407959 9.50602722 C45.79899353 9.5154837 45.79899353 9.5154837 44.12402344 9.52513123 C42.93756226 9.52108276 41.75110107 9.5170343 40.52868652 9.51286316 C39.31547729 9.51477661 38.10226807 9.51669006 36.85229492 9.5186615 C34.28332309 9.5200245 31.7143444 9.51632008 29.14538574 9.50798035 C25.20138149 9.49728276 21.25783277 9.5078721 17.31384277 9.52067566 C14.82295635 9.51935409 12.3320702 9.51679174 9.84118652 9.51286316 C8.06149475 9.51893585 8.06149475 9.51893585 6.24584961 9.52513123 C5.1513147 9.5188269 4.05677979 9.51252258 2.92907715 9.50602722 C1.96248169 9.50443604 0.99588623 9.50284485 0 9.50120544 C-2.31506348 9.24723816 -2.31506348 9.24723816 -4.31506348 7.24723816 C-4.56506348 4.74723816 -4.56506348 4.74723816 -4.31506348 2.24723816 C-2.31506348 0.24723816 -2.31506348 0.24723816 0 0 Z " fill="#FBF9FC" transform="translate(334.3150634765625,263.7527618408203)"/>
<path d="M0 0 C1.09453491 -0.00630432 2.18906982 -0.01260864 3.31677246 -0.019104 C5.09646423 -0.01303131 5.09646423 -0.01303131 6.91210938 -0.00683594 C8.1253186 -0.00874939 9.33852783 -0.01066284 10.58850098 -0.01263428 C13.15747281 -0.01399728 15.7264515 -0.01029286 18.29541016 -0.00195312 C22.23941441 0.00874446 26.18296313 -0.00184487 30.12695312 -0.01464844 C32.61783955 -0.01332686 35.1087257 -0.01076452 37.59960938 -0.00683594 C38.78607056 -0.0108844 39.97253174 -0.01493286 41.19494629 -0.019104 C42.83674866 -0.00964752 42.83674866 -0.00964752 44.51171875 0 C45.96161194 0.00238678 45.96161194 0.00238678 47.4407959 0.00482178 C49.75585938 0.25878906 49.75585938 0.25878906 51.75585938 2.25878906 C52.00585938 4.75878906 52.00585938 4.75878906 51.75585938 7.25878906 C49.16399102 9.85065742 48.1175931 9.51164222 44.51171875 9.51757812 C42.86991638 9.52703461 42.86991638 9.52703461 41.19494629 9.53668213 C40.00848511 9.53263367 38.82202393 9.52858521 37.59960938 9.52441406 C36.38640015 9.52632751 35.17319092 9.52824097 33.92321777 9.5302124 C31.35424594 9.53157541 28.78526725 9.52787098 26.21630859 9.51953125 C22.27230434 9.50883367 18.32875562 9.519423 14.38476562 9.53222656 C11.8938792 9.53090499 9.40299305 9.52834264 6.91210938 9.52441406 C5.1324176 9.53048676 5.1324176 9.53048676 3.31677246 9.53668213 C2.22223755 9.53037781 1.12770264 9.52407349 0 9.51757812 C-0.96659546 9.51598694 -1.93319092 9.51439575 -2.92907715 9.51275635 C-5.24414062 9.25878906 -5.24414062 9.25878906 -7.24414062 7.25878906 C-7.49414062 4.75878906 -7.49414062 4.75878906 -7.24414062 2.25878906 C-4.65227227 -0.3330793 -3.60587435 0.0059359 0 0 Z " fill="#FCFBFD" transform="translate(337.244140625,295.7412109375)"/>
<path d="M0 0 C3.74524823 0.93631206 6.28454465 2.10270265 9.640625 3.94140625 C10.71054688 4.52470703 11.78046875 5.10800781 12.8828125 5.70898438 C13.99398437 6.32064453 15.10515625 6.93230469 16.25 7.5625 C17.37664062 8.17802734 18.50328125 8.79355469 19.6640625 9.42773438 C22.44494687 10.94779405 25.22346327 12.47201773 28 14 C28 14.33 28 14.66 28 15 C26.73285156 15.25394531 25.46570313 15.50789062 24.16015625 15.76953125 C22.46087819 16.11689748 20.76166275 16.46457017 19.0625 16.8125 C18.23169922 16.97814453 17.40089844 17.14378906 16.54492188 17.31445312 C15.71669922 17.48525391 14.88847656 17.65605469 14.03515625 17.83203125 C13.2862915 17.98389893 12.53742676 18.1357666 11.76586914 18.29223633 C7.78214469 19.31163938 3.90106637 20.69964454 0 22 C0 14.74 0 7.48 0 0 Z " fill="#812C90" transform="translate(214,166)"/>
<path d="M0 0 C0 7.26 0 14.52 0 22 C-2.97 21.34 -5.94 20.68 -9 20 C-10.67760387 19.63957209 -12.35582808 19.28199411 -14.03515625 18.9296875 C-15.27749023 18.66865234 -15.27749023 18.66865234 -16.54492188 18.40234375 C-17.79112305 18.14130859 -17.79112305 18.14130859 -19.0625 17.875 C-19.92810547 17.69324219 -20.79371094 17.51148438 -21.68554688 17.32421875 C-23.79026627 16.88234396 -25.89511898 16.44110426 -28 16 C-24.72399465 13.26631133 -21.48383691 11.01606966 -17.734375 8.984375 C-16.76242187 8.45585937 -15.79046875 7.92734375 -14.7890625 7.3828125 C-13.78617187 6.84398437 -12.78328125 6.30515625 -11.75 5.75 C-10.73164063 5.19570312 -9.71328125 4.64140625 -8.6640625 4.0703125 C-1.14501232 0 -1.14501232 0 0 0 Z " fill="#822E91" transform="translate(276,165)"/>
<path d="M0 0 C14.85 0 29.7 0 45 0 C44 5 44 5 43 6 C39.90918535 6.1011692 36.84117445 6.13968558 33.75 6.1328125 C32.82155273 6.13376923 31.89310547 6.13472595 30.93652344 6.13571167 C28.96940035 6.13639355 27.00227504 6.13453872 25.03515625 6.13037109 C22.01296974 6.12502295 18.99093185 6.13031582 15.96875 6.13671875 C14.06249967 6.13605797 12.15624943 6.13477681 10.25 6.1328125 C8.88439941 6.13584885 8.88439941 6.13584885 7.49121094 6.13894653 C1.11494969 6.11494969 1.11494969 6.11494969 0 5 C0 3.35 0 1.7 0 0 Z " fill="#592C87" transform="translate(224,366)"/>
<path d="M0 0 C2.34023315 0.28082798 4.67305036 0.62468554 7 1 C11.08032194 1.22401768 14.77934494 1.03979026 18.8125 0.3125 C22 0 22 0 24 1.1875 C25 3 25 3 24.78125 4.97265625 C23.5351534 8.20627693 21.3545946 8.86543243 18.3125 10.234375 C12.74598461 12.07734293 7.84348766 11.65027585 2.5 9.3125 C-0.22122121 7.78926661 -0.85962252 7.32754745 -2.125 4.375 C-2 2 -2 2 0 0 Z " fill="#F9F6FA" transform="translate(234,226)"/>
<path d="M0 0 C0.85464844 -0.01675781 1.70929688 -0.03351563 2.58984375 -0.05078125 C5.5046356 0.37745831 6.87576679 1.38959539 9.0625 3.3125 C8.1875 8.1875 8.1875 8.1875 7.0625 9.3125 C5.08458356 9.3125 3.10643986 9.30844515 1.12890625 9.26953125 C-1.08532401 9.24073521 -1.08532401 9.24073521 -3.75 10 C-5.9375 10.3125 -5.9375 10.3125 -7.8125 9.1875 C-8.9375 7.3125 -8.9375 7.3125 -8.8125 4.75 C-7.21213528 0.29184115 -4.26870565 0.01925732 0 0 Z " fill="#F9F6FA" transform="translate(228.9375,205.6875)"/>
<path d="M0 0 C0.85464844 -0.01675781 1.70929688 -0.03351563 2.58984375 -0.05078125 C5.5046356 0.37745831 6.87576679 1.38959539 9.0625 3.3125 C8.1875 8.1875 8.1875 8.1875 7.0625 9.3125 C5.08458356 9.3125 3.10643986 9.30844515 1.12890625 9.26953125 C-1.08532401 9.24073521 -1.08532401 9.24073521 -3.75 10 C-5.9375 10.3125 -5.9375 10.3125 -7.8125 9.1875 C-8.9375 7.3125 -8.9375 7.3125 -8.8125 4.75 C-7.21213528 0.29184115 -4.26870565 0.01925732 0 0 Z " fill="#F9F5FA" transform="translate(260.9375,205.6875)"/>
<path d="M0 0 C1.59134766 -0.02513672 1.59134766 -0.02513672 3.21484375 -0.05078125 C6.0625 0.3125 6.0625 0.3125 7.95703125 1.66796875 C9.0625 3.3125 9.0625 3.3125 8.8125 5.9375 C8.0625 8.3125 8.0625 8.3125 7.0625 9.3125 C4.91942104 9.43787741 2.77171114 9.48824364 0.625 9.5 C-0.54933594 9.51417969 -1.72367187 9.52835937 -2.93359375 9.54296875 C-5.9375 9.3125 -5.9375 9.3125 -7.9375 7.3125 C-8.1875 4.8125 -8.1875 4.8125 -7.9375 2.3125 C-5.24648766 -0.37851234 -3.74674054 0.01362451 0 0 Z " fill="#F6F3F8" transform="translate(348.9375,368.6875)"/>
<path d="M0 0 C0.9590625 -0.01675781 1.918125 -0.03351563 2.90625 -0.05078125 C5.5 0.3125 5.5 0.3125 7.359375 1.66796875 C8.5 3.3125 8.5 3.3125 8.25 5.9375 C7.5 8.3125 7.5 8.3125 6.5 9.3125 C4.35692104 9.43787741 2.20921114 9.48824364 0.0625 9.5 C-1.11183594 9.51417969 -2.28617187 9.52835937 -3.49609375 9.54296875 C-6.5 9.3125 -6.5 9.3125 -8.5 7.3125 C-8.8125 4.8125 -8.8125 4.8125 -8.5 2.3125 C-5.16602694 0.08985129 -3.90485109 0.01574537 0 0 Z " fill="#F7F5F9" transform="translate(329.5,368.6875)"/>
<path d="M0 0 C1.0725 0.00515625 2.145 0.0103125 3.25 0.015625 C4.85875 0.00789063 4.85875 0.00789063 6.5 0 C9.25 0.265625 9.25 0.265625 11.25 2.265625 C11.5 4.765625 11.5 4.765625 11.25 7.265625 C9.25 9.265625 9.25 9.265625 6.24609375 9.49609375 C5.07175781 9.48191406 3.89742188 9.46773438 2.6875 9.453125 C0.92212891 9.44345703 0.92212891 9.44345703 -0.87890625 9.43359375 C-3.75 9.265625 -3.75 9.265625 -4.75 8.265625 C-4.9375 5.328125 -4.9375 5.328125 -4.75 2.265625 C-2.75 0.265625 -2.75 0.265625 0 0 Z " fill="#F8F6FA" transform="translate(306.75,368.734375)"/>
<path d="M0 0 C1.32 0 2.64 0 4 0 C4 1.65 4 3.3 4 5 C2.35 4.67 0.7 4.34 -1 4 C-0.67 2.68 -0.34 1.36 0 0 Z " fill="#903F9A" transform="translate(243,149)"/>
</svg>
